<svg xmlns="http://www.w3.org/2000/svg" width="283.56" height="102.81" viewBox="0 0 283.56 102.81">
  <defs>
    <style>
      .a {
        fill: #5fa;
      }
    </style>
  </defs>
  <title>Asset 1</title>
  <g>
    <g>
      <path class="a" d="M9,8.34V4.69h3.06v.86H9.86V7.39a2.72,2.72,0,0,1,.48,0,1.92,1.92,0,0,1,2,2.07,2,2,0,0,1-2,2.07,2.44,2.44,0,0,1-1.63-.71l.43-.59a1.72,1.72,0,0,0,1.1.5,1.16,1.16,0,0,0,1.16-1.27c0-.73-.35-1.28-1.1-1.28a1.68,1.68,0,0,0-1,.34Z"/>
      <path class="a" d="M15.19,11.5h-.32l-2-6.81h.9L15,9l1.22-4.31h.9Z"/>
      <path class="a" d="M2.2,18.12V15.49h.86V22.2H2.2V19H.86V22.2H0V15.49H.86v2.63Z"/>
      <path class="a" d="M7.47,21.43v.77H4.59v-.77h1v-3h-1V17.7H6.46v3.74ZM6,16.58A.55.55,0,0,1,5.48,16a.55.55,0,1,1,1.1,0A.55.55,0,0,1,6,16.58Z"/>
      <path class="a" d="M10.4,24.12A2.34,2.34,0,0,1,9,23.54l.31-.59a2,2,0,0,0,1.09.41c.45,0,.83-.27.83-1.13v-.31a1.08,1.08,0,0,1-.86.39c-1,0-1.58-1-1.58-2.35s.58-2.35,1.58-2.35a1.15,1.15,0,0,1,1.07.71l.32-.61h.32v4.53C12.06,23.46,11.39,24.12,10.4,24.12Zm.06-5.72c-.52,0-.74.69-.74,1.55s.22,1.55.74,1.55.73-.69.73-1.55S11,18.4,10.47,18.4Z"/>
      <path class="a" d="M14.36,15.49v2.44a1.33,1.33,0,0,1,.87-.33,1.44,1.44,0,0,1,1.32,1.61v3H15.7v-3c0-.53-.28-.83-.63-.83a.73.73,0,0,0-.7.7v3.1H13.5V15.49Z"/>
    </g>
    <g>
      <path class="a" d="M116.34,101c-1,0-1.58-1-1.58-2.35s.58-2.35,1.58-2.35a1.15,1.15,0,0,1,1.07.71l.32-.61h.32v4.5h-.32l-.32-.61A1.15,1.15,0,0,1,116.34,101Zm-.61-2.35c0,.85.22,1.55.74,1.55s.73-.69.73-1.55-.22-1.55-.73-1.55S115.73,97.79,115.73,98.64Z"/>
      <path class="a" d="M120.36,100.89h-.86v-4.5h.32l.24.59a1.36,1.36,0,0,1,1.17-.69,1.44,1.44,0,0,1,1.32,1.61v3h-.86v-3c0-.53-.28-.83-.63-.83a.73.73,0,0,0-.7.7Z"/>
      <path class="a" d="M125.34,101c-1,0-1.58-1-1.58-2.35s.58-2.35,1.58-2.35a1.15,1.15,0,0,1,1.07.71l.32-.61h.32v4.5h-.32l-.32-.61A1.15,1.15,0,0,1,125.34,101Zm-.61-2.35c0,.85.22,1.55.74,1.55s.73-.69.73-1.55-.22-1.55-.73-1.55S124.73,97.79,124.73,98.64Z"/>
      <path class="a" d="M131.47,100.13v.77h-2.88v-.77h1V95h-1v-.77h1.87v5.94Z"/>
      <path class="a" d="M136.29,98.64c0,1.31-.65,2.35-1.76,2.35s-1.76-1-1.76-2.35.65-2.35,1.76-2.35S136.29,97.34,136.29,98.64Zm-2.57,0c0,.85.23,1.55.8,1.55s.8-.69.8-1.55-.23-1.55-.8-1.55S133.73,97.79,133.73,98.64Z"/>
      <path class="a" d="M138.9,102.81a2.34,2.34,0,0,1-1.43-.58l.31-.59a2,2,0,0,0,1.09.41c.45,0,.83-.27.83-1.13v-.31a1.08,1.08,0,0,1-.86.39c-1,0-1.58-1-1.58-2.35s.58-2.35,1.58-2.35a1.15,1.15,0,0,1,1.07.71l.32-.61h.32v4.53C140.56,102.15,139.89,102.81,138.9,102.81Zm.06-5.72c-.52,0-.74.69-.74,1.55s.22,1.55.74,1.55.73-.69.73-1.55S139.48,97.09,139,97.09Z"/>
      <path class="a" d="M145.56,100.89h-.95l-1.06-2.52a2.37,2.37,0,0,1-.43.05h-.26v2.47H142V94.19h1.13a2.17,2.17,0,0,1,2.17,2.12,2.11,2.11,0,0,1-.95,1.74Zm-1.2-4.59A1.26,1.26,0,0,0,143.11,95h-.24v2.51h.24A1.26,1.26,0,0,0,144.37,96.3Z"/>
      <path class="a" d="M147.19,98.83a1.21,1.21,0,0,0,1.1,1.33,1.25,1.25,0,0,0,1-.52l.43.53a1.85,1.85,0,0,1-1.47.82,2.07,2.07,0,0,1-1.95-2.33c0-1.31.75-2.37,1.86-2.37a1.94,1.94,0,0,1,1.68,2.39h-2.61Zm1-1.71c-.3,0-.67.18-.85.79h1.59A.73.73,0,0,0,148.15,97.12Z"/>
      <path class="a" d="M152.34,101c-1,0-1.58-1-1.58-2.35s.58-2.35,1.58-2.35a1.15,1.15,0,0,1,1.07.71l.32-.61h.32v4.5h-.32l-.32-.61A1.15,1.15,0,0,1,152.34,101Zm-.61-2.35c0,.85.22,1.55.74,1.55s.73-.69.73-1.55-.22-1.55-.73-1.55S151.73,97.79,151.73,98.64Z"/>
      <path class="a" d="M156.84,101c-1,0-1.58-1-1.58-2.35s.58-2.35,1.58-2.35a1.09,1.09,0,0,1,.86.39V94.19h.86v6.71h-.32l-.32-.61A1.15,1.15,0,0,1,156.84,101Zm-.61-2.35c0,.85.22,1.55.74,1.55s.73-.69.73-1.55-.22-1.55-.73-1.55S156.23,97.79,156.23,98.64Z"/>
    </g>
    <g>
      <path class="a" d="M88.32,44.65H88l-1.65-4.09h.82l1,2.48,1-2.48H90Z"/>
      <path class="a" d="M91.61,44.65c-.89,0-1.4-.93-1.4-2.09s.51-2.09,1.4-2.09a1,1,0,0,1,1,.63l.29-.54h.29v4h-.29L92.56,44A1,1,0,0,1,91.61,44.65Zm-.54-2.09c0,.76.19,1.38.66,1.38s.65-.62.65-1.38-.19-1.37-.65-1.37S91.07,41.8,91.07,42.56Z"/>
      <path class="a" d="M96.66,42.32l-.49-1.1a1,1,0,0,0-.79.94V43.9l.9.37v.29H93.72v-.29l.89-.37V41.22l-.89-.37v-.29h1.66V41a1.38,1.38,0,0,1,1-.5,1.4,1.4,0,0,1,.52.1v1.74Z"/>
      <path class="a" d="M100.26,43.88v.68H97.7v-.68h.9V41.24h-.9v-.68h1.66v3.32ZM99,39.57a.49.49,0,0,1-.49-.48.49.49,0,1,1,1,0A.49.49,0,0,1,99,39.57Z"/>
      <path class="a" d="M102.41,44.65c-.89,0-1.4-.93-1.4-2.09s.51-2.09,1.4-2.09a1,1,0,0,1,1,.63l.29-.54h.29v4h-.29l-.29-.54A1,1,0,0,1,102.41,44.65Zm-.54-2.09c0,.76.19,1.38.66,1.38s.65-.62.65-1.38-.19-1.37-.65-1.37S101.87,41.8,101.87,42.56Z"/>
      <path class="a" d="M106.35,44.65a1,1,0,0,1-1-.63l-.29.54h-.29v-6h.77v2.21a1,1,0,0,1,.76-.34c.89,0,1.4.93,1.4,2.09S107.23,44.65,106.35,44.65Zm-.11-3.46c-.46,0-.65.62-.65,1.38s.19,1.38.65,1.38.66-.62.66-1.38S106.7,41.18,106.23,41.18Z"/>
      <path class="a" d="M111.06,43.88v.68H108.5v-.68h.9v-4.6h-.9V38.6h1.66v5.28Z"/>
      <path class="a" d="M112.64,42.73a1.08,1.08,0,0,0,1,1.18,1.11,1.11,0,0,0,.85-.46l.38.47a1.65,1.65,0,0,1-1.3.73,1.84,1.84,0,0,1-1.73-2.07c0-1.16.66-2.1,1.66-2.1A1.73,1.73,0,0,1,115,42.59h-2.32Zm.85-1.52c-.26,0-.59.16-.75.7h1.42A.64.64,0,0,0,113.48,41.21Z"/>
      <path class="a" d="M89.46,50.32,89,49.23a1,1,0,0,0-.79.94V51.9l.9.37v.29H86.52v-.29l.89-.37V49.22l-.89-.37v-.29h1.66V49a1.38,1.38,0,0,1,1-.5,1.4,1.4,0,0,1,.52.1v1.74Z"/>
      <path class="a" d="M91,50.73a1.08,1.08,0,0,0,1,1.18,1.11,1.11,0,0,0,.85-.46l.38.47a1.65,1.65,0,0,1-1.3.73,1.84,1.84,0,0,1-1.73-2.07c0-1.16.66-2.1,1.66-2.1a1.73,1.73,0,0,1,1.49,2.12H91Zm.85-1.52c-.26,0-.59.16-.75.7h1.42A.64.64,0,0,0,91.88,49.21Z"/>
      <path class="a" d="M95.37,52.65A2.78,2.78,0,0,1,94,52.22l.08-.66a2.79,2.79,0,0,0,1.23.4c.41,0,.72-.14.72-.48,0-.69-2-.43-2-1.81a1.26,1.26,0,0,1,1.39-1.19,2.34,2.34,0,0,1,1.34.48l-.23.57a2.32,2.32,0,0,0-1-.36c-.43,0-.66.19-.66.45,0,.65,2,.48,2,1.78A1.3,1.3,0,0,1,95.37,52.65Z"/>
      <path class="a" d="M100.26,51.88v.68H97.7v-.68h.9V49.24h-.9v-.68h1.66v3.32ZM99,47.57a.49.49,0,0,1-.49-.48.49.49,0,1,1,1,0A.49.49,0,0,1,99,47.57Z"/>
      <path class="a" d="M102.57,52.65a2.79,2.79,0,0,1-1.38-.44l.08-.66a2.79,2.79,0,0,0,1.23.4c.41,0,.72-.14.72-.48,0-.69-2-.43-2-1.81a1.26,1.26,0,0,1,1.39-1.19,2.34,2.34,0,0,1,1.34.48l-.23.57a2.32,2.32,0,0,0-1-.36c-.43,0-.66.19-.66.45,0,.65,2,.48,2,1.78A1.3,1.3,0,0,1,102.57,52.65Z"/>
      <path class="a" d="M106.76,52.65c-.8,0-1.26-.57-1.26-1.59V49.24h-.77v-.68h.77V47.11h.77v1.45h1.27v.68h-1.27V51c0,.65.22.91.71.91a1.64,1.64,0,0,0,.66-.15l.16.59A2.09,2.09,0,0,1,106.76,52.65Z"/>
      <path class="a" d="M111.35,50.56c0,1.16-.58,2.09-1.57,2.09s-1.57-.93-1.57-2.09.58-2.09,1.57-2.09S111.35,49.4,111.35,50.56Zm-2.28,0c0,.76.21,1.38.71,1.38s.71-.62.71-1.38-.21-1.37-.71-1.37S109.07,49.8,109.07,50.56Z"/>
      <path class="a" d="M114.66,50.32l-.49-1.1a1,1,0,0,0-.79.94V51.9l.9.37v.29h-2.55v-.29l.89-.37V49.22l-.89-.37v-.29h1.66V49a1.38,1.38,0,0,1,1-.5,1.4,1.4,0,0,1,.52.1v1.74Z"/>
    </g>
    <g>
      <path class="a" d="M161.81,44.65c-.89,0-1.4-.93-1.4-2.09s.51-2.09,1.4-2.09a1,1,0,0,1,.76.34V38.6h.77v6h-.29l-.29-.54A1,1,0,0,1,161.81,44.65Zm-.54-2.09c0,.76.19,1.38.66,1.38s.65-.62.65-1.38-.19-1.37-.65-1.37S161.27,41.8,161.27,42.56Z"/>
      <path class="a" d="M166.86,43.88v.68H164.3v-.68h.9V41.24h-.9v-.68H166v3.32Zm-1.28-4.31a.49.49,0,0,1-.49-.48.49.49,0,1,1,1,0A.49.49,0,0,1,165.58,39.57Z"/>
      <path class="a" d="M169.32,44.65H169l-1.65-4.09h.81l1,2.48,1-2.48H171Z"/>
      <path class="a" d="M174.06,43.88v.68H171.5v-.68h.89V41.24h-.89v-.68h1.66v3.32Zm-1.28-4.31a.49.49,0,0,1-.49-.48.49.49,0,1,1,1,0A.49.49,0,0,1,172.78,39.57Z"/>
      <path class="a" d="M176.21,44.65c-.89,0-1.4-.93-1.4-2.09s.51-2.09,1.4-2.09a1,1,0,0,1,.76.34V38.6h.77v6h-.29l-.29-.54A1,1,0,0,1,176.21,44.65Zm-.54-2.09c0,.76.19,1.38.66,1.38s.65-.62.65-1.38-.19-1.37-.65-1.37S175.67,41.8,175.67,42.56Z"/>
      <path class="a" d="M179.24,42.73a1.08,1.08,0,0,0,1,1.18,1.11,1.11,0,0,0,.85-.46l.38.47a1.65,1.65,0,0,1-1.3.73,1.84,1.84,0,0,1-1.73-2.07c0-1.16.66-2.1,1.65-2.1a1.73,1.73,0,0,1,1.49,2.12h-2.32Zm.85-1.52c-.26,0-.59.16-.75.7h1.42A.64.64,0,0,0,180.08,41.21Z"/>
      <path class="a" d="M184.86,42.32l-.49-1.1a1,1,0,0,0-.79.94V43.9l.9.37v.29h-2.55v-.29l.89-.37V41.22l-.89-.37v-.29h1.66V41a1.38,1.38,0,0,1,1-.5,1.4,1.4,0,0,1,.52.1v1.74Z"/>
      <path class="a" d="M161.46,50.32l-.49-1.1a1,1,0,0,0-.79.94V51.9l.9.37v.29h-2.55v-.29l.89-.37V49.22l-.89-.37v-.29h1.66V49a1.38,1.38,0,0,1,1-.5,1.4,1.4,0,0,1,.52.1v1.74Z"/>
      <path class="a" d="M163,50.73a1.08,1.08,0,0,0,1,1.18,1.11,1.11,0,0,0,.85-.46l.38.47a1.65,1.65,0,0,1-1.3.73,1.84,1.84,0,0,1-1.73-2.07c0-1.16.66-2.1,1.66-2.1a1.73,1.73,0,0,1,1.49,2.12H163Zm.85-1.52c-.26,0-.59.16-.75.7h1.42A.64.64,0,0,0,163.88,49.21Z"/>
      <path class="a" d="M167.37,52.65a2.78,2.78,0,0,1-1.38-.44l.08-.66a2.79,2.79,0,0,0,1.23.4c.41,0,.72-.14.72-.48,0-.69-2-.43-2-1.81a1.26,1.26,0,0,1,1.39-1.19,2.34,2.34,0,0,1,1.34.48l-.23.57a2.31,2.31,0,0,0-1-.36c-.43,0-.66.19-.66.45,0,.65,2,.48,2,1.78A1.3,1.3,0,0,1,167.37,52.65Z"/>
      <path class="a" d="M172.26,51.88v.68H169.7v-.68h.9V49.24h-.9v-.68h1.66v3.32ZM171,47.57a.49.49,0,0,1-.49-.48.49.49,0,0,1,1,0A.49.49,0,0,1,171,47.57Z"/>
      <path class="a" d="M174.57,52.65a2.78,2.78,0,0,1-1.38-.44l.08-.66a2.79,2.79,0,0,0,1.23.4c.41,0,.72-.14.72-.48,0-.69-2-.43-2-1.81a1.26,1.26,0,0,1,1.39-1.19,2.34,2.34,0,0,1,1.34.48l-.23.57a2.31,2.31,0,0,0-1-.36c-.43,0-.66.19-.66.45,0,.65,2,.48,2,1.78A1.3,1.3,0,0,1,174.57,52.65Z"/>
      <path class="a" d="M178.76,52.65c-.8,0-1.26-.57-1.26-1.59V49.24h-.77v-.68h.77V47.11h.77v1.45h1.27v.68h-1.27V51c0,.65.22.91.71.91a1.64,1.64,0,0,0,.66-.15l.16.59A2.09,2.09,0,0,1,178.76,52.65Z"/>
      <path class="a" d="M183.35,50.56c0,1.16-.58,2.09-1.57,2.09s-1.57-.93-1.57-2.09.58-2.09,1.57-2.09S183.35,49.4,183.35,50.56Zm-2.28,0c0,.76.21,1.38.71,1.38s.71-.62.71-1.38-.21-1.37-.71-1.37S181.07,49.8,181.07,50.56Z"/>
      <path class="a" d="M186.66,50.32l-.49-1.1a1,1,0,0,0-.79.94V51.9l.9.37v.29h-2.55v-.29l.89-.37V49.22l-.89-.37v-.29h1.66V49a1.38,1.38,0,0,1,1-.5,1.4,1.4,0,0,1,.52.1v1.74Z"/>
    </g>
    <g>
      <path class="a" d="M260.42,8.82h-1V8h1.87V11.4H261l-.19-.46a1.41,1.41,0,0,1-1.13.56c-1.31,0-1.86-1.57-1.86-3.45s.55-3.45,1.86-3.45c.9,0,1.52.6,1.52,1.82h-.8c0-.62-.25-.94-.67-.94-.68,0-.95,1.11-.95,2.57s.26,2.57.95,2.57c.42,0,.75-.24.75-1Z"/>
      <path class="a" d="M265.47,8.88l-.55-1.23A1.1,1.1,0,0,0,264,8.71v2l1,.41v.32h-2.87v-.32l1-.41v-3l-1-.41V6.9H264v.46a1.56,1.56,0,0,1,1.18-.56,1.58,1.58,0,0,1,.58.12v2Z"/>
      <path class="a" d="M270.29,9.15c0,1.31-.65,2.35-1.76,2.35s-1.76-1-1.76-2.35.65-2.35,1.76-2.35S270.29,7.84,270.29,9.15Zm-2.57,0c0,.85.23,1.55.8,1.55s.8-.69.8-1.55-.23-1.55-.8-1.55S267.73,8.29,267.73,9.15Z"/>
      <path class="a" d="M274.24,11.4l-.24-.59a1.36,1.36,0,0,1-1.17.69,1.43,1.43,0,0,1-1.32-1.61v-3h.86v3c0,.53.28.83.63.83a.73.73,0,0,0,.7-.7V6.9h.86v4.5Z"/>
      <path class="a" d="M276.86,11.4H276V6.9h.32l.24.59a1.36,1.36,0,0,1,1.17-.69,1.44,1.44,0,0,1,1.32,1.61v3h-.86v-3c0-.53-.28-.83-.63-.83a.73.73,0,0,0-.7.7Z"/>
      <path class="a" d="M281.84,11.5c-1,0-1.58-1-1.58-2.35s.58-2.35,1.58-2.35a1.08,1.08,0,0,1,.86.39V4.69h.86V11.4h-.32l-.32-.61A1.15,1.15,0,0,1,281.84,11.5Zm-.61-2.35c0,.85.22,1.55.74,1.55s.73-.69.73-1.55S282.48,7.6,282,7.6,281.23,8.29,281.23,9.15Z"/>
      <path class="a" d="M259.05,21.33h2.43v.86h-3.29V15.49h.86Z"/>
      <path class="a" d="M265.79,19.95c0,1.31-.65,2.35-1.76,2.35s-1.76-1-1.76-2.35.65-2.35,1.76-2.35S265.79,18.64,265.79,19.95Zm-2.57,0c0,.85.23,1.55.8,1.55s.8-.69.8-1.55-.23-1.55-.8-1.55S263.23,19.09,263.23,19.95Z"/>
      <path class="a" d="M270.07,17.7h.76l-1.28,4.6h-.32l-.7-2.5-.7,2.5h-.32l-1.28-4.6H267l.67,2.61.5-1.86-.22-.75h.77l.68,2.61Z"/>
    </g>
    <path class="a" d="M174.22,14.18l-.55-1.23a1.1,1.1,0,0,0-.89,1.06v2l1,.41v.32h-2.87v-.32l1-.41v-3l-1-.41V12.2h1.86v.46A1.56,1.56,0,0,1,174,12.1a1.58,1.58,0,0,1,.58.12v2Z"/>
    <path class="a" d="M102.81,17.75h-.95l-1.06-2.52a2.38,2.38,0,0,1-.43.05h-.26v2.47h-.86V11h1.13a2.17,2.17,0,0,1,2.17,2.12,2.11,2.11,0,0,1-.95,1.74Zm-1.2-4.59a1.26,1.26,0,0,0-1.26-1.25h-.24v2.51h.24A1.26,1.26,0,0,0,101.62,13.16Z"/>
    <path class="a" d="M252.53,13.4H188.18V8h-30.8v5.4h-41.2V8h-8.29l6.23-6.23L114,6l1,0,.22-6-6,.22,0,1,4.19-.15L106.47,8H85.38v5.4H21a1,1,0,0,0,0,2H85.38v5.4h8.29L86,28.45a.5.5,0,1,0,.71.71l8.35-8.35h21.09V15.4h19.6V83.85l-2.36-2.53-.73.68,3.09,3.32a1,1,0,0,0,.9,1l.1.1.1-.1a1,1,0,0,0,.9-1L140.87,82l-.73-.68-2.36,2.54V15.4h19.6v5.4h30.8V15.4h64.35a1,1,0,0,0,0-2ZM114.18,18.8H87.38V10h26.8Zm72,0h-26.8V10h26.8Z"/>
  </g>
</svg>
